<mxfile host="Electron" modified="2025-09-03T17:26:02.936Z" agent="Mozilla/5.0 (X11; Linux x86_64) AppleWebKit/537.36 (KHTML, like Gecko) draw.io/21.6.5 Chrome/114.0.5735.243 Electron/25.3.1 Safari/537.36" etag="SZvMy7xAVnj8YQwgDUuv" version="21.6.5" type="device">
  <diagram name="Page-1" id="amlL32T-MJD5DSymMVKv">
    <mxGraphModel dx="931" dy="545" grid="1" gridSize="10" guides="1" tooltips="1" connect="1" arrows="1" fold="1" page="1" pageScale="1" pageWidth="827" pageHeight="1169" math="0" shadow="0">
      <root>
        <mxCell id="0" />
        <mxCell id="1" parent="0" />
        <mxCell id="Hq-kVnmm3y2Sfbi3e5nW-29" value="&amp;gt;" style="rounded=0;whiteSpace=wrap;html=1;fontSize=24;fillColor=#fff2cc;strokeColor=#d6b656;" vertex="1" parent="1">
          <mxGeometry x="620" y="290" width="40" height="80" as="geometry" />
        </mxCell>
        <mxCell id="Hq-kVnmm3y2Sfbi3e5nW-30" value="" style="endArrow=none;html=1;rounded=0;entryX=0;entryY=0.25;entryDx=0;entryDy=0;" edge="1" parent="1" target="Hq-kVnmm3y2Sfbi3e5nW-29">
          <mxGeometry width="50" height="50" relative="1" as="geometry">
            <mxPoint x="600" y="310" as="sourcePoint" />
            <mxPoint x="810" y="320" as="targetPoint" />
          </mxGeometry>
        </mxCell>
        <mxCell id="Hq-kVnmm3y2Sfbi3e5nW-31" value="" style="endArrow=none;html=1;rounded=0;entryX=0;entryY=0.25;entryDx=0;entryDy=0;" edge="1" parent="1">
          <mxGeometry width="50" height="50" relative="1" as="geometry">
            <mxPoint x="600" y="350" as="sourcePoint" />
            <mxPoint x="620" y="350" as="targetPoint" />
          </mxGeometry>
        </mxCell>
        <mxCell id="Hq-kVnmm3y2Sfbi3e5nW-32" value="" style="endArrow=none;html=1;rounded=0;entryX=0;entryY=0.25;entryDx=0;entryDy=0;" edge="1" parent="1">
          <mxGeometry width="50" height="50" relative="1" as="geometry">
            <mxPoint x="660" y="330" as="sourcePoint" />
            <mxPoint x="680" y="330" as="targetPoint" />
          </mxGeometry>
        </mxCell>
        <mxCell id="Hq-kVnmm3y2Sfbi3e5nW-33" value="&#39;2" style="text;html=1;strokeColor=none;fillColor=none;align=center;verticalAlign=middle;whiteSpace=wrap;rounded=0;fontSize=10;" vertex="1" parent="1">
          <mxGeometry x="660" y="310" width="20" height="20" as="geometry" />
        </mxCell>
        <mxCell id="Hq-kVnmm3y2Sfbi3e5nW-34" value="&#39;0" style="text;html=1;strokeColor=none;fillColor=none;align=center;verticalAlign=middle;whiteSpace=wrap;rounded=0;fontSize=10;" vertex="1" parent="1">
          <mxGeometry x="600" y="290" width="20" height="20" as="geometry" />
        </mxCell>
        <mxCell id="Hq-kVnmm3y2Sfbi3e5nW-35" value="&#39;0" style="text;html=1;strokeColor=none;fillColor=none;align=center;verticalAlign=middle;whiteSpace=wrap;rounded=0;fontSize=10;" vertex="1" parent="1">
          <mxGeometry x="600" y="330" width="20" height="20" as="geometry" />
        </mxCell>
        <mxCell id="Hq-kVnmm3y2Sfbi3e5nW-50" value="" style="group" vertex="1" connectable="0" parent="1">
          <mxGeometry x="460" y="320" width="50" height="20" as="geometry" />
        </mxCell>
        <mxCell id="Hq-kVnmm3y2Sfbi3e5nW-44" value="" style="triangle;whiteSpace=wrap;html=1;strokeColor=none;container=0;fillColor=#dae8fc;" vertex="1" parent="Hq-kVnmm3y2Sfbi3e5nW-50">
          <mxGeometry x="40" width="10" height="20" as="geometry" />
        </mxCell>
        <mxCell id="Hq-kVnmm3y2Sfbi3e5nW-45" value="n_z_i" style="rounded=0;whiteSpace=wrap;html=1;strokeColor=none;container=0;fillColor=#dae8fc;glass=0;" vertex="1" parent="Hq-kVnmm3y2Sfbi3e5nW-50">
          <mxGeometry width="40" height="20" as="geometry" />
        </mxCell>
        <mxCell id="Hq-kVnmm3y2Sfbi3e5nW-42" value="" style="endArrow=none;html=1;rounded=0;fillColor=#dae8fc;strokeColor=#6c8ebf;" edge="1" parent="Hq-kVnmm3y2Sfbi3e5nW-50">
          <mxGeometry width="50" height="50" relative="1" as="geometry">
            <mxPoint x="10" y="20" as="sourcePoint" />
            <mxPoint x="10" y="20" as="targetPoint" />
            <Array as="points">
              <mxPoint x="40" y="20" />
              <mxPoint x="50" y="10" />
              <mxPoint x="40" />
              <mxPoint />
              <mxPoint y="20" />
            </Array>
          </mxGeometry>
        </mxCell>
        <mxCell id="Hq-kVnmm3y2Sfbi3e5nW-51" value="" style="group" vertex="1" connectable="0" parent="1">
          <mxGeometry x="120" y="160" width="50" height="20" as="geometry" />
        </mxCell>
        <mxCell id="Hq-kVnmm3y2Sfbi3e5nW-47" value="" style="triangle;whiteSpace=wrap;html=1;strokeColor=none;container=0;fillColor=#d5e8d4;" vertex="1" parent="Hq-kVnmm3y2Sfbi3e5nW-51">
          <mxGeometry x="40" width="10" height="20" as="geometry" />
        </mxCell>
        <mxCell id="Hq-kVnmm3y2Sfbi3e5nW-48" value="z_r" style="rounded=0;whiteSpace=wrap;html=1;strokeColor=none;container=0;fillColor=#d5e8d4;glass=0;" vertex="1" parent="Hq-kVnmm3y2Sfbi3e5nW-51">
          <mxGeometry width="40" height="20" as="geometry" />
        </mxCell>
        <mxCell id="Hq-kVnmm3y2Sfbi3e5nW-49" value="" style="endArrow=none;html=1;rounded=0;fillColor=#d5e8d4;strokeColor=#82b366;" edge="1" parent="Hq-kVnmm3y2Sfbi3e5nW-51">
          <mxGeometry width="50" height="50" relative="1" as="geometry">
            <mxPoint x="10" y="20" as="sourcePoint" />
            <mxPoint x="10" y="20" as="targetPoint" />
            <Array as="points">
              <mxPoint x="40" y="20" />
              <mxPoint x="50" y="10" />
              <mxPoint x="40" />
              <mxPoint />
              <mxPoint y="20" />
            </Array>
          </mxGeometry>
        </mxCell>
        <mxCell id="Hq-kVnmm3y2Sfbi3e5nW-57" value="" style="group" vertex="1" connectable="0" parent="1">
          <mxGeometry x="120" y="250" width="50" height="20" as="geometry" />
        </mxCell>
        <mxCell id="Hq-kVnmm3y2Sfbi3e5nW-58" value="" style="triangle;whiteSpace=wrap;html=1;strokeColor=none;container=0;fillColor=#d5e8d4;" vertex="1" parent="Hq-kVnmm3y2Sfbi3e5nW-57">
          <mxGeometry x="40" width="10" height="20" as="geometry" />
        </mxCell>
        <mxCell id="Hq-kVnmm3y2Sfbi3e5nW-59" value="z_i" style="rounded=0;whiteSpace=wrap;html=1;strokeColor=none;container=0;fillColor=#d5e8d4;glass=0;" vertex="1" parent="Hq-kVnmm3y2Sfbi3e5nW-57">
          <mxGeometry width="40" height="20" as="geometry" />
        </mxCell>
        <mxCell id="Hq-kVnmm3y2Sfbi3e5nW-60" value="" style="endArrow=none;html=1;rounded=0;fillColor=#d5e8d4;strokeColor=#82b366;" edge="1" parent="Hq-kVnmm3y2Sfbi3e5nW-57">
          <mxGeometry width="50" height="50" relative="1" as="geometry">
            <mxPoint x="10" y="20" as="sourcePoint" />
            <mxPoint x="10" y="20" as="targetPoint" />
            <Array as="points">
              <mxPoint x="40" y="20" />
              <mxPoint x="50" y="10" />
              <mxPoint x="40" />
              <mxPoint />
              <mxPoint y="20" />
            </Array>
          </mxGeometry>
        </mxCell>
        <mxCell id="Hq-kVnmm3y2Sfbi3e5nW-63" value="-" style="rounded=0;whiteSpace=wrap;html=1;fontSize=24;fillColor=#fff2cc;strokeColor=#d6b656;" vertex="1" parent="1">
          <mxGeometry x="300" y="195" width="40" height="80" as="geometry" />
        </mxCell>
        <mxCell id="Hq-kVnmm3y2Sfbi3e5nW-64" value="" style="endArrow=none;html=1;rounded=0;entryX=0;entryY=0.25;entryDx=0;entryDy=0;" edge="1" target="Hq-kVnmm3y2Sfbi3e5nW-63" parent="1">
          <mxGeometry width="50" height="50" relative="1" as="geometry">
            <mxPoint x="280" y="190" as="sourcePoint" />
            <mxPoint x="490" y="225" as="targetPoint" />
            <Array as="points">
              <mxPoint x="280" y="215" />
            </Array>
          </mxGeometry>
        </mxCell>
        <mxCell id="Hq-kVnmm3y2Sfbi3e5nW-65" value="" style="endArrow=none;html=1;rounded=0;entryX=0;entryY=0.25;entryDx=0;entryDy=0;" edge="1" parent="1">
          <mxGeometry width="50" height="50" relative="1" as="geometry">
            <mxPoint x="280" y="280" as="sourcePoint" />
            <mxPoint x="300" y="255" as="targetPoint" />
            <Array as="points">
              <mxPoint x="280" y="255" />
            </Array>
          </mxGeometry>
        </mxCell>
        <mxCell id="Hq-kVnmm3y2Sfbi3e5nW-66" value="" style="endArrow=none;html=1;rounded=0;entryX=0;entryY=0.25;entryDx=0;entryDy=0;" edge="1" parent="1" target="Hq-kVnmm3y2Sfbi3e5nW-153">
          <mxGeometry width="50" height="50" relative="1" as="geometry">
            <mxPoint x="340" y="235" as="sourcePoint" />
            <mxPoint x="360" y="235" as="targetPoint" />
            <Array as="points">
              <mxPoint x="360" y="235" />
              <mxPoint x="360" y="255" />
            </Array>
          </mxGeometry>
        </mxCell>
        <mxCell id="Hq-kVnmm3y2Sfbi3e5nW-67" value="&#39;11" style="text;html=1;strokeColor=none;fillColor=none;align=center;verticalAlign=middle;whiteSpace=wrap;rounded=0;fontSize=10;" vertex="1" parent="1">
          <mxGeometry x="340" y="220" width="20" height="10" as="geometry" />
        </mxCell>
        <mxCell id="Hq-kVnmm3y2Sfbi3e5nW-68" value="&#39;0" style="text;html=1;strokeColor=none;fillColor=none;align=center;verticalAlign=middle;whiteSpace=wrap;rounded=0;fontSize=10;" vertex="1" parent="1">
          <mxGeometry x="280" y="240" width="20" height="10" as="geometry" />
        </mxCell>
        <mxCell id="Hq-kVnmm3y2Sfbi3e5nW-69" value="&#39;0" style="text;html=1;strokeColor=none;fillColor=none;align=center;verticalAlign=middle;whiteSpace=wrap;rounded=0;fontSize=10;" vertex="1" parent="1">
          <mxGeometry x="280" y="200" width="20" height="10" as="geometry" />
        </mxCell>
        <mxCell id="Hq-kVnmm3y2Sfbi3e5nW-77" value="*" style="rounded=0;whiteSpace=wrap;html=1;fontSize=24;fillColor=#fff2cc;strokeColor=#d6b656;" vertex="1" parent="1">
          <mxGeometry x="220" y="330" width="40" height="80" as="geometry" />
        </mxCell>
        <mxCell id="Hq-kVnmm3y2Sfbi3e5nW-78" value="" style="endArrow=none;html=1;rounded=0;entryX=0;entryY=0.25;entryDx=0;entryDy=0;" edge="1" target="Hq-kVnmm3y2Sfbi3e5nW-77" parent="1">
          <mxGeometry width="50" height="50" relative="1" as="geometry">
            <mxPoint x="200" y="170" as="sourcePoint" />
            <mxPoint x="410" y="360" as="targetPoint" />
            <Array as="points">
              <mxPoint x="200" y="350" />
            </Array>
          </mxGeometry>
        </mxCell>
        <mxCell id="Hq-kVnmm3y2Sfbi3e5nW-79" value="" style="endArrow=none;html=1;rounded=0;entryX=0;entryY=0.25;entryDx=0;entryDy=0;fillColor=#f5f5f5;strokeColor=#666666;" edge="1" parent="1">
          <mxGeometry width="50" height="50" relative="1" as="geometry">
            <mxPoint x="190" y="260" as="sourcePoint" />
            <mxPoint x="220" y="390" as="targetPoint" />
            <Array as="points">
              <mxPoint x="190" y="390" />
            </Array>
          </mxGeometry>
        </mxCell>
        <mxCell id="Hq-kVnmm3y2Sfbi3e5nW-80" value="" style="endArrow=none;html=1;rounded=0;entryX=0;entryY=0.25;entryDx=0;entryDy=0;" edge="1" parent="1">
          <mxGeometry width="50" height="50" relative="1" as="geometry">
            <mxPoint x="260" y="370" as="sourcePoint" />
            <mxPoint x="280" y="370" as="targetPoint" />
          </mxGeometry>
        </mxCell>
        <mxCell id="Hq-kVnmm3y2Sfbi3e5nW-81" value="&#39;8" style="text;html=1;strokeColor=none;fillColor=none;align=center;verticalAlign=middle;whiteSpace=wrap;rounded=0;fontSize=10;" vertex="1" parent="1">
          <mxGeometry x="260" y="355" width="20" height="10" as="geometry" />
        </mxCell>
        <mxCell id="Hq-kVnmm3y2Sfbi3e5nW-82" value="&#39;0" style="text;html=1;strokeColor=none;fillColor=none;align=center;verticalAlign=middle;whiteSpace=wrap;rounded=0;fontSize=10;" vertex="1" parent="1">
          <mxGeometry x="200" y="375" width="20" height="10" as="geometry" />
        </mxCell>
        <mxCell id="Hq-kVnmm3y2Sfbi3e5nW-83" value="&#39;0" style="text;html=1;strokeColor=none;fillColor=none;align=center;verticalAlign=middle;whiteSpace=wrap;rounded=0;fontSize=10;" vertex="1" parent="1">
          <mxGeometry x="200" y="335" width="20" height="10" as="geometry" />
        </mxCell>
        <mxCell id="Hq-kVnmm3y2Sfbi3e5nW-84" value="*" style="rounded=0;whiteSpace=wrap;html=1;fontSize=24;fillColor=#fff2cc;strokeColor=#d6b656;" vertex="1" parent="1">
          <mxGeometry x="220" y="240" width="40" height="80" as="geometry" />
        </mxCell>
        <mxCell id="Hq-kVnmm3y2Sfbi3e5nW-85" value="" style="endArrow=none;html=1;rounded=0;entryX=0;entryY=0.25;entryDx=0;entryDy=0;fillColor=#f5f5f5;strokeColor=#666666;" edge="1" parent="1" target="Hq-kVnmm3y2Sfbi3e5nW-84">
          <mxGeometry width="50" height="50" relative="1" as="geometry">
            <mxPoint x="170" y="260" as="sourcePoint" />
            <mxPoint x="410" y="270" as="targetPoint" />
          </mxGeometry>
        </mxCell>
        <mxCell id="Hq-kVnmm3y2Sfbi3e5nW-86" value="" style="endArrow=none;html=1;rounded=0;entryX=0;entryY=0.25;entryDx=0;entryDy=0;fillColor=#f5f5f5;strokeColor=#666666;" edge="1" parent="1">
          <mxGeometry width="50" height="50" relative="1" as="geometry">
            <mxPoint x="190" y="300" as="sourcePoint" />
            <mxPoint x="220" y="300" as="targetPoint" />
          </mxGeometry>
        </mxCell>
        <mxCell id="Hq-kVnmm3y2Sfbi3e5nW-87" value="" style="endArrow=none;html=1;rounded=0;entryX=0;entryY=0.25;entryDx=0;entryDy=0;" edge="1" parent="1">
          <mxGeometry width="50" height="50" relative="1" as="geometry">
            <mxPoint x="260" y="280" as="sourcePoint" />
            <mxPoint x="280" y="280" as="targetPoint" />
          </mxGeometry>
        </mxCell>
        <mxCell id="Hq-kVnmm3y2Sfbi3e5nW-88" value="&#39;8" style="text;html=1;strokeColor=none;fillColor=none;align=center;verticalAlign=middle;whiteSpace=wrap;rounded=0;fontSize=10;" vertex="1" parent="1">
          <mxGeometry x="260" y="265" width="20" height="10" as="geometry" />
        </mxCell>
        <mxCell id="Hq-kVnmm3y2Sfbi3e5nW-89" value="&#39;0" style="text;html=1;strokeColor=none;fillColor=none;align=center;verticalAlign=middle;whiteSpace=wrap;rounded=0;fontSize=10;" vertex="1" parent="1">
          <mxGeometry x="200" y="285" width="20" height="10" as="geometry" />
        </mxCell>
        <mxCell id="Hq-kVnmm3y2Sfbi3e5nW-90" value="&#39;0" style="text;html=1;strokeColor=none;fillColor=none;align=center;verticalAlign=middle;whiteSpace=wrap;rounded=0;fontSize=10;" vertex="1" parent="1">
          <mxGeometry x="200" y="245" width="20" height="10" as="geometry" />
        </mxCell>
        <mxCell id="Hq-kVnmm3y2Sfbi3e5nW-91" value="*" style="rounded=0;whiteSpace=wrap;html=1;fontSize=24;fillColor=#fff2cc;strokeColor=#d6b656;" vertex="1" parent="1">
          <mxGeometry x="220" y="150" width="40" height="80" as="geometry" />
        </mxCell>
        <mxCell id="Hq-kVnmm3y2Sfbi3e5nW-92" value="" style="endArrow=none;html=1;rounded=0;entryX=0;entryY=0.25;entryDx=0;entryDy=0;" edge="1" parent="1" target="Hq-kVnmm3y2Sfbi3e5nW-91">
          <mxGeometry width="50" height="50" relative="1" as="geometry">
            <mxPoint x="170" y="170" as="sourcePoint" />
            <mxPoint x="410" y="180" as="targetPoint" />
          </mxGeometry>
        </mxCell>
        <mxCell id="Hq-kVnmm3y2Sfbi3e5nW-93" value="" style="endArrow=none;html=1;rounded=0;entryX=0;entryY=0.25;entryDx=0;entryDy=0;" edge="1" parent="1">
          <mxGeometry width="50" height="50" relative="1" as="geometry">
            <mxPoint x="200" y="210" as="sourcePoint" />
            <mxPoint x="220" y="210" as="targetPoint" />
          </mxGeometry>
        </mxCell>
        <mxCell id="Hq-kVnmm3y2Sfbi3e5nW-94" value="" style="endArrow=none;html=1;rounded=0;entryX=0;entryY=0.25;entryDx=0;entryDy=0;" edge="1" parent="1">
          <mxGeometry width="50" height="50" relative="1" as="geometry">
            <mxPoint x="260" y="190" as="sourcePoint" />
            <mxPoint x="280" y="190" as="targetPoint" />
          </mxGeometry>
        </mxCell>
        <mxCell id="Hq-kVnmm3y2Sfbi3e5nW-95" value="&#39;8" style="text;html=1;strokeColor=none;fillColor=none;align=center;verticalAlign=middle;whiteSpace=wrap;rounded=0;fontSize=10;" vertex="1" parent="1">
          <mxGeometry x="260" y="175" width="20" height="10" as="geometry" />
        </mxCell>
        <mxCell id="Hq-kVnmm3y2Sfbi3e5nW-96" value="&#39;0" style="text;html=1;strokeColor=none;fillColor=none;align=center;verticalAlign=middle;whiteSpace=wrap;rounded=0;fontSize=10;" vertex="1" parent="1">
          <mxGeometry x="200" y="195" width="20" height="10" as="geometry" />
        </mxCell>
        <mxCell id="Hq-kVnmm3y2Sfbi3e5nW-97" value="&#39;0" style="text;html=1;strokeColor=none;fillColor=none;align=center;verticalAlign=middle;whiteSpace=wrap;rounded=0;fontSize=10;" vertex="1" parent="1">
          <mxGeometry x="200" y="155" width="20" height="10" as="geometry" />
        </mxCell>
        <mxCell id="Hq-kVnmm3y2Sfbi3e5nW-98" value="+" style="rounded=0;whiteSpace=wrap;html=1;fontSize=24;fillColor=#fff2cc;strokeColor=#d6b656;" vertex="1" parent="1">
          <mxGeometry x="300" y="330" width="40" height="80" as="geometry" />
        </mxCell>
        <mxCell id="Hq-kVnmm3y2Sfbi3e5nW-99" value="" style="endArrow=none;html=1;rounded=0;entryX=0;entryY=0.25;entryDx=0;entryDy=0;" edge="1" parent="1" target="Hq-kVnmm3y2Sfbi3e5nW-98">
          <mxGeometry width="50" height="50" relative="1" as="geometry">
            <mxPoint x="280" y="390" as="sourcePoint" />
            <mxPoint x="490" y="360" as="targetPoint" />
            <Array as="points">
              <mxPoint x="280" y="350" />
            </Array>
          </mxGeometry>
        </mxCell>
        <mxCell id="Hq-kVnmm3y2Sfbi3e5nW-100" value="" style="endArrow=none;html=1;rounded=0;entryX=0;entryY=0.25;entryDx=0;entryDy=0;" edge="1" parent="1">
          <mxGeometry width="50" height="50" relative="1" as="geometry">
            <mxPoint x="280" y="390" as="sourcePoint" />
            <mxPoint x="300" y="390" as="targetPoint" />
          </mxGeometry>
        </mxCell>
        <mxCell id="Hq-kVnmm3y2Sfbi3e5nW-103" value="&#39;0" style="text;html=1;strokeColor=none;fillColor=none;align=center;verticalAlign=middle;whiteSpace=wrap;rounded=0;fontSize=10;" vertex="1" parent="1">
          <mxGeometry x="280" y="375" width="20" height="10" as="geometry" />
        </mxCell>
        <mxCell id="Hq-kVnmm3y2Sfbi3e5nW-104" value="&#39;0" style="text;html=1;strokeColor=none;fillColor=none;align=center;verticalAlign=middle;whiteSpace=wrap;rounded=0;fontSize=10;" vertex="1" parent="1">
          <mxGeometry x="280" y="335" width="20" height="10" as="geometry" />
        </mxCell>
        <mxCell id="Hq-kVnmm3y2Sfbi3e5nW-105" value="*" style="rounded=0;whiteSpace=wrap;html=1;fontSize=24;fillColor=#fff2cc;strokeColor=#d6b656;" vertex="1" parent="1">
          <mxGeometry x="460" y="350" width="40" height="80" as="geometry" />
        </mxCell>
        <mxCell id="Hq-kVnmm3y2Sfbi3e5nW-106" value="" style="endArrow=none;html=1;rounded=0;entryX=0;entryY=0.25;entryDx=0;entryDy=0;" edge="1" parent="1" target="Hq-kVnmm3y2Sfbi3e5nW-105">
          <mxGeometry width="50" height="50" relative="1" as="geometry">
            <mxPoint x="440" y="370" as="sourcePoint" />
            <mxPoint x="650" y="380" as="targetPoint" />
            <Array as="points">
              <mxPoint x="440" y="370" />
            </Array>
          </mxGeometry>
        </mxCell>
        <mxCell id="Hq-kVnmm3y2Sfbi3e5nW-107" value="" style="endArrow=none;html=1;rounded=0;entryX=0;entryY=0.25;entryDx=0;entryDy=0;" edge="1" parent="1">
          <mxGeometry width="50" height="50" relative="1" as="geometry">
            <mxPoint x="460" y="330" as="sourcePoint" />
            <mxPoint x="460" y="410" as="targetPoint" />
            <Array as="points">
              <mxPoint x="440" y="330" />
              <mxPoint x="440" y="410" />
            </Array>
          </mxGeometry>
        </mxCell>
        <mxCell id="Hq-kVnmm3y2Sfbi3e5nW-108" value="" style="endArrow=none;html=1;rounded=0;entryX=0;entryY=0.25;entryDx=0;entryDy=0;" edge="1" parent="1">
          <mxGeometry width="50" height="50" relative="1" as="geometry">
            <mxPoint x="500" y="390" as="sourcePoint" />
            <mxPoint x="520" y="390" as="targetPoint" />
          </mxGeometry>
        </mxCell>
        <mxCell id="Hq-kVnmm3y2Sfbi3e5nW-109" value="&#39;8" style="text;html=1;strokeColor=none;fillColor=none;align=center;verticalAlign=middle;whiteSpace=wrap;rounded=0;fontSize=10;" vertex="1" parent="1">
          <mxGeometry x="500" y="375" width="20" height="10" as="geometry" />
        </mxCell>
        <mxCell id="Hq-kVnmm3y2Sfbi3e5nW-110" value="&#39;0" style="text;html=1;strokeColor=none;fillColor=none;align=center;verticalAlign=middle;whiteSpace=wrap;rounded=0;fontSize=10;" vertex="1" parent="1">
          <mxGeometry x="440" y="395" width="20" height="10" as="geometry" />
        </mxCell>
        <mxCell id="Hq-kVnmm3y2Sfbi3e5nW-111" value="&#39;0" style="text;html=1;strokeColor=none;fillColor=none;align=center;verticalAlign=middle;whiteSpace=wrap;rounded=0;fontSize=10;" vertex="1" parent="1">
          <mxGeometry x="440" y="355" width="20" height="10" as="geometry" />
        </mxCell>
        <mxCell id="Hq-kVnmm3y2Sfbi3e5nW-123" value="" style="group" vertex="1" connectable="0" parent="1">
          <mxGeometry x="460" y="185" width="50" height="20" as="geometry" />
        </mxCell>
        <mxCell id="Hq-kVnmm3y2Sfbi3e5nW-124" value="" style="triangle;whiteSpace=wrap;html=1;strokeColor=none;container=0;fillColor=#dae8fc;" vertex="1" parent="Hq-kVnmm3y2Sfbi3e5nW-123">
          <mxGeometry x="40" width="10" height="20" as="geometry" />
        </mxCell>
        <mxCell id="Hq-kVnmm3y2Sfbi3e5nW-125" value="n_z_r" style="rounded=0;whiteSpace=wrap;html=1;strokeColor=none;container=0;fillColor=#dae8fc;glass=0;" vertex="1" parent="Hq-kVnmm3y2Sfbi3e5nW-123">
          <mxGeometry width="40" height="20" as="geometry" />
        </mxCell>
        <mxCell id="Hq-kVnmm3y2Sfbi3e5nW-126" value="" style="endArrow=none;html=1;rounded=0;fillColor=#dae8fc;strokeColor=#6c8ebf;" edge="1" parent="Hq-kVnmm3y2Sfbi3e5nW-123">
          <mxGeometry width="50" height="50" relative="1" as="geometry">
            <mxPoint x="10" y="20" as="sourcePoint" />
            <mxPoint x="10" y="20" as="targetPoint" />
            <Array as="points">
              <mxPoint x="40" y="20" />
              <mxPoint x="50" y="10" />
              <mxPoint x="40" />
              <mxPoint />
              <mxPoint y="20" />
            </Array>
          </mxGeometry>
        </mxCell>
        <mxCell id="Hq-kVnmm3y2Sfbi3e5nW-127" value="*" style="rounded=0;whiteSpace=wrap;html=1;fontSize=24;fillColor=#fff2cc;strokeColor=#d6b656;" vertex="1" parent="1">
          <mxGeometry x="460" y="215" width="40" height="80" as="geometry" />
        </mxCell>
        <mxCell id="Hq-kVnmm3y2Sfbi3e5nW-128" value="" style="endArrow=none;html=1;rounded=0;entryX=0;entryY=0.25;entryDx=0;entryDy=0;" edge="1" parent="1" target="Hq-kVnmm3y2Sfbi3e5nW-127">
          <mxGeometry width="50" height="50" relative="1" as="geometry">
            <mxPoint x="440" y="235" as="sourcePoint" />
            <mxPoint x="650" y="245" as="targetPoint" />
            <Array as="points">
              <mxPoint x="440" y="235" />
            </Array>
          </mxGeometry>
        </mxCell>
        <mxCell id="Hq-kVnmm3y2Sfbi3e5nW-129" value="" style="endArrow=none;html=1;rounded=0;entryX=0;entryY=0.25;entryDx=0;entryDy=0;" edge="1" parent="1">
          <mxGeometry width="50" height="50" relative="1" as="geometry">
            <mxPoint x="460" y="195" as="sourcePoint" />
            <mxPoint x="460" y="275" as="targetPoint" />
            <Array as="points">
              <mxPoint x="440" y="195" />
              <mxPoint x="440" y="275" />
            </Array>
          </mxGeometry>
        </mxCell>
        <mxCell id="Hq-kVnmm3y2Sfbi3e5nW-130" value="" style="endArrow=none;html=1;rounded=0;entryX=0;entryY=0.25;entryDx=0;entryDy=0;" edge="1" parent="1">
          <mxGeometry width="50" height="50" relative="1" as="geometry">
            <mxPoint x="500" y="255" as="sourcePoint" />
            <mxPoint x="520" y="255" as="targetPoint" />
          </mxGeometry>
        </mxCell>
        <mxCell id="Hq-kVnmm3y2Sfbi3e5nW-131" value="&#39;8" style="text;html=1;strokeColor=none;fillColor=none;align=center;verticalAlign=middle;whiteSpace=wrap;rounded=0;fontSize=10;" vertex="1" parent="1">
          <mxGeometry x="500" y="240" width="20" height="10" as="geometry" />
        </mxCell>
        <mxCell id="Hq-kVnmm3y2Sfbi3e5nW-132" value="&#39;0" style="text;html=1;strokeColor=none;fillColor=none;align=center;verticalAlign=middle;whiteSpace=wrap;rounded=0;fontSize=10;" vertex="1" parent="1">
          <mxGeometry x="440" y="260" width="20" height="10" as="geometry" />
        </mxCell>
        <mxCell id="Hq-kVnmm3y2Sfbi3e5nW-133" value="&#39;0" style="text;html=1;strokeColor=none;fillColor=none;align=center;verticalAlign=middle;whiteSpace=wrap;rounded=0;fontSize=10;" vertex="1" parent="1">
          <mxGeometry x="440" y="220" width="20" height="10" as="geometry" />
        </mxCell>
        <mxCell id="Hq-kVnmm3y2Sfbi3e5nW-134" value="+" style="rounded=0;whiteSpace=wrap;html=1;fontSize=24;fillColor=#fff2cc;strokeColor=#d6b656;" vertex="1" parent="1">
          <mxGeometry x="540" y="235" width="40" height="80" as="geometry" />
        </mxCell>
        <mxCell id="Hq-kVnmm3y2Sfbi3e5nW-135" value="" style="endArrow=none;html=1;rounded=0;entryX=0;entryY=0.25;entryDx=0;entryDy=0;" edge="1" target="Hq-kVnmm3y2Sfbi3e5nW-134" parent="1">
          <mxGeometry width="50" height="50" relative="1" as="geometry">
            <mxPoint x="520" y="255" as="sourcePoint" />
            <mxPoint x="730" y="265" as="targetPoint" />
          </mxGeometry>
        </mxCell>
        <mxCell id="Hq-kVnmm3y2Sfbi3e5nW-136" value="" style="endArrow=none;html=1;rounded=0;entryX=0;entryY=0.25;entryDx=0;entryDy=0;" edge="1" parent="1">
          <mxGeometry width="50" height="50" relative="1" as="geometry">
            <mxPoint x="520" y="390" as="sourcePoint" />
            <mxPoint x="540" y="295" as="targetPoint" />
            <Array as="points">
              <mxPoint x="520" y="295" />
            </Array>
          </mxGeometry>
        </mxCell>
        <mxCell id="Hq-kVnmm3y2Sfbi3e5nW-137" value="" style="endArrow=none;html=1;rounded=0;entryX=0;entryY=1;entryDx=0;entryDy=0;" edge="1" parent="1" target="Hq-kVnmm3y2Sfbi3e5nW-34">
          <mxGeometry width="50" height="50" relative="1" as="geometry">
            <mxPoint x="580" y="275" as="sourcePoint" />
            <mxPoint x="600" y="275" as="targetPoint" />
            <Array as="points">
              <mxPoint x="600" y="275" />
            </Array>
          </mxGeometry>
        </mxCell>
        <mxCell id="Hq-kVnmm3y2Sfbi3e5nW-138" value="&#39;11" style="text;html=1;strokeColor=none;fillColor=none;align=center;verticalAlign=middle;whiteSpace=wrap;rounded=0;fontSize=10;" vertex="1" parent="1">
          <mxGeometry x="580" y="260" width="20" height="10" as="geometry" />
        </mxCell>
        <mxCell id="Hq-kVnmm3y2Sfbi3e5nW-139" value="&#39;0" style="text;html=1;strokeColor=none;fillColor=none;align=center;verticalAlign=middle;whiteSpace=wrap;rounded=0;fontSize=10;" vertex="1" parent="1">
          <mxGeometry x="520" y="280" width="20" height="10" as="geometry" />
        </mxCell>
        <mxCell id="Hq-kVnmm3y2Sfbi3e5nW-140" value="&#39;0" style="text;html=1;strokeColor=none;fillColor=none;align=center;verticalAlign=middle;whiteSpace=wrap;rounded=0;fontSize=10;" vertex="1" parent="1">
          <mxGeometry x="520" y="240" width="20" height="10" as="geometry" />
        </mxCell>
        <mxCell id="Hq-kVnmm3y2Sfbi3e5nW-141" value="4.0" style="text;html=1;strokeColor=none;fillColor=none;align=center;verticalAlign=middle;whiteSpace=wrap;rounded=0;" vertex="1" parent="1">
          <mxGeometry x="570" y="335" width="30" height="30" as="geometry" />
        </mxCell>
        <mxCell id="Hq-kVnmm3y2Sfbi3e5nW-153" value="+" style="rounded=0;whiteSpace=wrap;html=1;fontSize=24;fillColor=#fff2cc;strokeColor=#d6b656;" vertex="1" parent="1">
          <mxGeometry x="380" y="235" width="40" height="80" as="geometry" />
        </mxCell>
        <mxCell id="Hq-kVnmm3y2Sfbi3e5nW-155" value="" style="endArrow=none;html=1;rounded=0;" edge="1" parent="1">
          <mxGeometry width="50" height="50" relative="1" as="geometry">
            <mxPoint x="420" y="275" as="sourcePoint" />
            <mxPoint x="440" y="275" as="targetPoint" />
            <Array as="points">
              <mxPoint x="440" y="275" />
            </Array>
          </mxGeometry>
        </mxCell>
        <mxCell id="Hq-kVnmm3y2Sfbi3e5nW-156" value="&#39;11" style="text;html=1;strokeColor=none;fillColor=none;align=center;verticalAlign=middle;whiteSpace=wrap;rounded=0;fontSize=10;" vertex="1" parent="1">
          <mxGeometry x="420" y="260" width="20" height="10" as="geometry" />
        </mxCell>
        <mxCell id="Hq-kVnmm3y2Sfbi3e5nW-157" value="&#39;0" style="text;html=1;strokeColor=none;fillColor=none;align=center;verticalAlign=middle;whiteSpace=wrap;rounded=0;fontSize=10;" vertex="1" parent="1">
          <mxGeometry x="360" y="280" width="20" height="10" as="geometry" />
        </mxCell>
        <mxCell id="Hq-kVnmm3y2Sfbi3e5nW-158" value="&#39;0" style="text;html=1;strokeColor=none;fillColor=none;align=center;verticalAlign=middle;whiteSpace=wrap;rounded=0;fontSize=10;" vertex="1" parent="1">
          <mxGeometry x="360" y="240" width="20" height="10" as="geometry" />
        </mxCell>
        <mxCell id="Hq-kVnmm3y2Sfbi3e5nW-159" value="" style="endArrow=none;html=1;rounded=0;entryX=0;entryY=0.25;entryDx=0;entryDy=0;" edge="1" parent="1">
          <mxGeometry width="50" height="50" relative="1" as="geometry">
            <mxPoint x="360" y="295" as="sourcePoint" />
            <mxPoint x="380" y="295" as="targetPoint" />
          </mxGeometry>
        </mxCell>
        <mxCell id="Hq-kVnmm3y2Sfbi3e5nW-160" value="" style="group" vertex="1" connectable="0" parent="1">
          <mxGeometry x="310" y="285" width="50" height="20" as="geometry" />
        </mxCell>
        <mxCell id="Hq-kVnmm3y2Sfbi3e5nW-161" value="" style="triangle;whiteSpace=wrap;html=1;strokeColor=none;container=0;fillColor=#d5e8d4;" vertex="1" parent="Hq-kVnmm3y2Sfbi3e5nW-160">
          <mxGeometry x="40" width="10" height="20" as="geometry" />
        </mxCell>
        <mxCell id="Hq-kVnmm3y2Sfbi3e5nW-162" value="c_r" style="rounded=0;whiteSpace=wrap;html=1;strokeColor=none;container=0;fillColor=#d5e8d4;glass=0;" vertex="1" parent="Hq-kVnmm3y2Sfbi3e5nW-160">
          <mxGeometry width="40" height="20" as="geometry" />
        </mxCell>
        <mxCell id="Hq-kVnmm3y2Sfbi3e5nW-163" value="" style="endArrow=none;html=1;rounded=0;fillColor=#d5e8d4;strokeColor=#82b366;" edge="1" parent="Hq-kVnmm3y2Sfbi3e5nW-160">
          <mxGeometry width="50" height="50" relative="1" as="geometry">
            <mxPoint x="10" y="20" as="sourcePoint" />
            <mxPoint x="10" y="20" as="targetPoint" />
            <Array as="points">
              <mxPoint x="40" y="20" />
              <mxPoint x="50" y="10" />
              <mxPoint x="40" />
              <mxPoint />
              <mxPoint y="20" />
            </Array>
          </mxGeometry>
        </mxCell>
        <mxCell id="Hq-kVnmm3y2Sfbi3e5nW-164" value="" style="endArrow=none;html=1;rounded=0;entryX=0;entryY=0.25;entryDx=0;entryDy=0;" edge="1" parent="1" target="Hq-kVnmm3y2Sfbi3e5nW-166">
          <mxGeometry width="50" height="50" relative="1" as="geometry">
            <mxPoint x="340" y="370" as="sourcePoint" />
            <mxPoint x="360" y="370" as="targetPoint" />
            <Array as="points">
              <mxPoint x="360" y="370" />
              <mxPoint x="360" y="390" />
            </Array>
          </mxGeometry>
        </mxCell>
        <mxCell id="Hq-kVnmm3y2Sfbi3e5nW-165" value="&#39;11" style="text;html=1;strokeColor=none;fillColor=none;align=center;verticalAlign=middle;whiteSpace=wrap;rounded=0;fontSize=10;" vertex="1" parent="1">
          <mxGeometry x="340" y="355" width="20" height="10" as="geometry" />
        </mxCell>
        <mxCell id="Hq-kVnmm3y2Sfbi3e5nW-166" value="+" style="rounded=0;whiteSpace=wrap;html=1;fontSize=24;fillColor=#fff2cc;strokeColor=#d6b656;" vertex="1" parent="1">
          <mxGeometry x="380" y="370" width="40" height="80" as="geometry" />
        </mxCell>
        <mxCell id="Hq-kVnmm3y2Sfbi3e5nW-167" value="" style="endArrow=none;html=1;rounded=0;" edge="1" parent="1">
          <mxGeometry width="50" height="50" relative="1" as="geometry">
            <mxPoint x="420" y="410" as="sourcePoint" />
            <mxPoint x="440" y="410" as="targetPoint" />
            <Array as="points">
              <mxPoint x="440" y="410" />
            </Array>
          </mxGeometry>
        </mxCell>
        <mxCell id="Hq-kVnmm3y2Sfbi3e5nW-168" value="&#39;11" style="text;html=1;strokeColor=none;fillColor=none;align=center;verticalAlign=middle;whiteSpace=wrap;rounded=0;fontSize=10;" vertex="1" parent="1">
          <mxGeometry x="420" y="395" width="20" height="10" as="geometry" />
        </mxCell>
        <mxCell id="Hq-kVnmm3y2Sfbi3e5nW-169" value="&#39;0" style="text;html=1;strokeColor=none;fillColor=none;align=center;verticalAlign=middle;whiteSpace=wrap;rounded=0;fontSize=10;" vertex="1" parent="1">
          <mxGeometry x="360" y="415" width="20" height="10" as="geometry" />
        </mxCell>
        <mxCell id="Hq-kVnmm3y2Sfbi3e5nW-170" value="&#39;0" style="text;html=1;strokeColor=none;fillColor=none;align=center;verticalAlign=middle;whiteSpace=wrap;rounded=0;fontSize=10;" vertex="1" parent="1">
          <mxGeometry x="360" y="375" width="20" height="10" as="geometry" />
        </mxCell>
        <mxCell id="Hq-kVnmm3y2Sfbi3e5nW-171" value="" style="group" vertex="1" connectable="0" parent="1">
          <mxGeometry x="310" y="420" width="50" height="20" as="geometry" />
        </mxCell>
        <mxCell id="Hq-kVnmm3y2Sfbi3e5nW-172" value="" style="triangle;whiteSpace=wrap;html=1;strokeColor=none;container=0;fillColor=#d5e8d4;" vertex="1" parent="Hq-kVnmm3y2Sfbi3e5nW-171">
          <mxGeometry x="40" width="10" height="20" as="geometry" />
        </mxCell>
        <mxCell id="Hq-kVnmm3y2Sfbi3e5nW-173" value="c_i" style="rounded=0;whiteSpace=wrap;html=1;strokeColor=none;container=0;fillColor=#d5e8d4;glass=0;" vertex="1" parent="Hq-kVnmm3y2Sfbi3e5nW-171">
          <mxGeometry width="40" height="20" as="geometry" />
        </mxCell>
        <mxCell id="Hq-kVnmm3y2Sfbi3e5nW-174" value="" style="endArrow=none;html=1;rounded=0;fillColor=#d5e8d4;strokeColor=#82b366;" edge="1" parent="Hq-kVnmm3y2Sfbi3e5nW-171">
          <mxGeometry width="50" height="50" relative="1" as="geometry">
            <mxPoint x="10" y="20" as="sourcePoint" />
            <mxPoint x="10" y="20" as="targetPoint" />
            <Array as="points">
              <mxPoint x="40" y="20" />
              <mxPoint x="50" y="10" />
              <mxPoint x="40" />
              <mxPoint />
              <mxPoint y="20" />
            </Array>
          </mxGeometry>
        </mxCell>
        <mxCell id="Hq-kVnmm3y2Sfbi3e5nW-175" value="" style="endArrow=none;html=1;rounded=0;entryX=0;entryY=0.25;entryDx=0;entryDy=0;" edge="1" parent="1">
          <mxGeometry width="50" height="50" relative="1" as="geometry">
            <mxPoint x="360" y="430" as="sourcePoint" />
            <mxPoint x="380" y="430" as="targetPoint" />
          </mxGeometry>
        </mxCell>
        <mxCell id="Hq-kVnmm3y2Sfbi3e5nW-176" value="" style="group" vertex="1" connectable="0" parent="1">
          <mxGeometry x="680" y="320" width="50" height="20" as="geometry" />
        </mxCell>
        <mxCell id="Hq-kVnmm3y2Sfbi3e5nW-177" value="" style="triangle;whiteSpace=wrap;html=1;strokeColor=none;container=0;fillColor=#dae8fc;" vertex="1" parent="Hq-kVnmm3y2Sfbi3e5nW-176">
          <mxGeometry x="40" width="10" height="20" as="geometry" />
        </mxCell>
        <mxCell id="Hq-kVnmm3y2Sfbi3e5nW-178" value="done" style="rounded=0;whiteSpace=wrap;html=1;strokeColor=none;container=0;fillColor=#dae8fc;glass=0;" vertex="1" parent="Hq-kVnmm3y2Sfbi3e5nW-176">
          <mxGeometry width="40" height="20" as="geometry" />
        </mxCell>
        <mxCell id="Hq-kVnmm3y2Sfbi3e5nW-179" value="" style="endArrow=none;html=1;rounded=0;fillColor=#dae8fc;strokeColor=#6c8ebf;" edge="1" parent="Hq-kVnmm3y2Sfbi3e5nW-176">
          <mxGeometry width="50" height="50" relative="1" as="geometry">
            <mxPoint x="10" y="20" as="sourcePoint" />
            <mxPoint x="10" y="20" as="targetPoint" />
            <Array as="points">
              <mxPoint x="40" y="20" />
              <mxPoint x="50" y="10" />
              <mxPoint x="40" />
              <mxPoint />
              <mxPoint y="20" />
            </Array>
          </mxGeometry>
        </mxCell>
      </root>
    </mxGraphModel>
  </diagram>
</mxfile>
